<svg id="visual" viewBox="0 0 900 600" width="2000" height="60" xmlns="http://www.w3.org/2000/svg" xmlns:xlink="http://www.w3.org/1999/xlink" version="1.1"><rect x="0" y="0" width="900" height="600" fill="#f1f4f5"></rect><path d="M0 522L5.5 522.2C11 522.3 22 522.7 33.2 526.3C44.3 530 55.7 537 66.8 536.8C78 536.7 89 529.3 100 527.2C111 525 122 528 133.2 529.8C144.3 531.7 155.7 532.3 166.8 535.7C178 539 189 545 200 545.2C211 545.3 222 539.7 233.2 540.2C244.3 540.7 255.7 547.3 266.8 550.7C278 554 289 554 300 553.8C311 553.7 322 553.3 333.2 550.2C344.3 547 355.7 541 366.8 539.3C378 537.7 389 540.3 400 538.3C411 536.3 422 529.7 433.2 526.2C444.3 522.7 455.7 522.3 466.8 523.8C478 525.3 489 528.7 500 533.5C511 538.3 522 544.7 533.2 548.3C544.3 552 555.7 553 566.8 549.5C578 546 589 538 600 533.5C611 529 622 528 633.2 526.7C644.3 525.3 655.7 523.7 666.8 523.7C678 523.7 689 525.3 700 530.3C711 535.3 722 543.7 733.2 544C744.3 544.3 755.7 536.7 766.8 536.2C778 535.7 789 542.3 800 545.7C811 549 822 549 833.2 549.5C844.3 550 855.7 551 866.8 547.7C878 544.3 889 536.7 894.5 532.8L900 529L900 601L894.5 601C889 601 878 601 866.8 601C855.7 601 844.3 601 833.2 601C822 601 811 601 800 601C789 601 778 601 766.8 601C755.7 601 744.3 601 733.2 601C722 601 711 601 700 601C689 601 678 601 666.8 601C655.7 601 644.3 601 633.2 601C622 601 611 601 600 601C589 601 578 601 566.8 601C555.7 601 544.3 601 533.2 601C522 601 511 601 500 601C489 601 478 601 466.8 601C455.7 601 444.3 601 433.2 601C422 601 411 601 400 601C389 601 378 601 366.8 601C355.7 601 344.3 601 333.2 601C322 601 311 601 300 601C289 601 278 601 266.8 601C255.7 601 244.3 601 233.2 601C222 601 211 601 200 601C189 601 178 601 166.8 601C155.7 601 144.3 601 133.2 601C122 601 111 601 100 601C89 601 78 601 66.8 601C55.7 601 44.3 601 33.2 601C22 601 11 601 5.5 601L0 601Z" fill="#0066FF" stroke-linecap="round" stroke-linejoin="miter"></path></svg>